<svg xmlns="http://www.w3.org/2000/svg" xmlns:xlink="http://www.w3.org/1999/xlink" width="500" zoomAndPan="magnify" viewBox="0 0 375 374.999991" height="500" preserveAspectRatio="xMidYMid meet" version="1.0"><defs><clipPath id="050d9f23d2"><path d="M 67.5 37.5 L 307.5 37.5 L 307.5 337.5 L 67.5 337.5 Z M 67.5 37.5 " clip-rule="nonzero"/></clipPath></defs><g clip-path="url(#050d9f23d2)"><path fill="#000000" d="M 233.46875 37.773438 L 107.746094 37.773438 C 85.527344 37.773438 67.449219 55.851562 67.449219 78.070312 L 67.449219 296.929688 C 67.449219 319.148438 85.527344 337.226562 107.746094 337.226562 L 267.257812 337.226562 C 289.476562 337.226562 307.554688 319.152344 307.554688 296.929688 L 307.554688 120.574219 Z M 239.339844 76.191406 L 273.183594 114.015625 L 239.339844 114.015625 Z M 267.253906 315.988281 L 107.746094 315.988281 C 97.238281 315.988281 88.6875 307.441406 88.6875 296.929688 L 88.6875 78.070312 C 88.6875 67.558594 97.238281 59.011719 107.746094 59.011719 L 218.101562 59.011719 L 218.101562 135.253906 L 286.3125 135.253906 L 286.3125 296.929688 C 286.3125 307.441406 277.761719 315.988281 267.253906 315.988281 Z M 267.253906 315.988281 " fill-opacity="1" fill-rule="nonzero"/></g><path fill="#000000" d="M 111.484375 252.460938 L 263.511719 252.460938 L 263.511719 273.699219 L 111.484375 273.699219 Z M 111.484375 252.460938 " fill-opacity="1" fill-rule="nonzero"/><path fill="#000000" d="M 111.484375 206.308594 L 263.511719 206.308594 L 263.511719 227.546875 L 111.484375 227.546875 Z M 111.484375 206.308594 " fill-opacity="1" fill-rule="nonzero"/><path fill="#000000" d="M 111.484375 160.160156 L 263.511719 160.160156 L 263.511719 181.402344 L 111.484375 181.402344 Z M 111.484375 160.160156 " fill-opacity="1" fill-rule="nonzero"/></svg>