<svg xmlns="http://www.w3.org/2000/svg" xmlns:xlink="http://www.w3.org/1999/xlink" width="500" zoomAndPan="magnify" viewBox="0 0 375 374.999991" height="500" preserveAspectRatio="xMidYMid meet" version="1.0"><defs><clipPath id="410981645d"><path d="M 44.25 37.5 L 330.75 37.5 L 330.75 337.5 L 44.25 337.5 Z M 44.25 37.5 " clip-rule="nonzero"/></clipPath></defs><g clip-path="url(#410981645d)"><path fill="#000000" d="M 279 67.511719 L 265.070312 67.511719 L 265.070312 46.714844 C 265.070312 41.710938 261 37.679688 256.035156 37.679688 C 251.03125 37.679688 247 41.75 247 46.714844 L 247 67.550781 L 122.8125 67.550781 L 122.8125 46.714844 C 122.8125 41.710938 118.742188 37.679688 113.773438 37.679688 C 108.769531 37.679688 104.738281 41.75 104.738281 46.714844 L 104.738281 67.550781 L 95.964844 67.550781 C 67.398438 67.550781 44.25 90.699219 44.25 119.261719 L 44.25 285.609375 C 44.25 314.171875 67.398438 337.320312 95.964844 337.320312 L 279 337.320312 C 307.5625 337.320312 330.710938 314.171875 330.710938 285.609375 L 330.710938 119.261719 C 330.75 90.699219 307.5625 67.511719 279 67.511719 Z M 246.960938 77.070312 L 246.960938 95.851562 C 246.960938 100.855469 251.03125 104.886719 255.996094 104.886719 C 261 104.886719 265.035156 100.816406 265.035156 95.851562 L 265.035156 77.78125 C 270.820312 81.140625 274.742188 87.414062 274.742188 94.582031 C 274.742188 105.296875 266.042969 114 255.324219 114 C 244.609375 114 235.910156 105.296875 235.910156 94.582031 C 235.984375 86.851562 240.464844 80.207031 246.960938 77.070312 Z M 104.703125 77.40625 L 104.703125 95.851562 C 104.703125 100.855469 108.769531 104.886719 113.738281 104.886719 C 118.742188 104.886719 122.773438 100.816406 122.773438 95.851562 L 122.773438 77.40625 C 128.933594 80.65625 133.117188 87.113281 133.117188 94.546875 C 133.117188 105.261719 124.417969 113.960938 113.699219 113.960938 C 102.984375 113.960938 94.285156 105.261719 94.285156 94.546875 C 94.359375 87.113281 98.578125 80.65625 104.703125 77.40625 Z M 312.640625 285.570312 C 312.640625 304.128906 297.554688 319.175781 279.035156 319.175781 L 95.964844 319.175781 C 77.40625 319.175781 62.359375 304.089844 62.359375 285.570312 L 62.359375 147.789062 L 312.640625 147.789062 Z M 312.640625 285.570312 " fill-opacity="1" fill-rule="nonzero"/></g><path fill="#000000" d="M 123.070312 199.953125 L 98.019531 199.953125 C 96 199.953125 94.359375 198.308594 94.359375 196.292969 L 94.359375 171.238281 C 94.359375 169.222656 96 167.578125 98.019531 167.578125 L 123.070312 167.578125 C 125.089844 167.578125 126.730469 169.222656 126.730469 171.238281 L 126.730469 196.292969 C 126.695312 198.308594 125.089844 199.953125 123.070312 199.953125 Z M 123.070312 199.953125 " fill-opacity="1" fill-rule="nonzero"/><path fill="#000000" d="M 123.070312 251.332031 L 98.019531 251.332031 C 96 251.332031 94.359375 249.6875 94.359375 247.671875 L 94.359375 222.617188 C 94.359375 220.601562 96 218.957031 98.019531 218.957031 L 123.070312 218.957031 C 125.089844 218.957031 126.730469 220.601562 126.730469 222.617188 L 126.730469 247.671875 C 126.695312 249.726562 125.089844 251.332031 123.070312 251.332031 Z M 123.070312 251.332031 " fill-opacity="1" fill-rule="nonzero"/><path fill="#000000" d="M 123.070312 302.746094 L 98.019531 302.746094 C 96 302.746094 94.359375 301.101562 94.359375 299.085938 L 94.359375 274.03125 C 94.359375 272.015625 96 270.375 98.019531 270.375 L 123.070312 270.375 C 125.089844 270.375 126.730469 272.015625 126.730469 274.03125 L 126.730469 299.125 C 126.695312 301.101562 125.089844 302.746094 123.070312 302.746094 Z M 123.070312 302.746094 " fill-opacity="1" fill-rule="nonzero"/><path fill="#000000" d="M 174.449219 199.953125 L 149.394531 199.953125 C 147.378906 199.953125 145.738281 198.308594 145.738281 196.292969 L 145.738281 171.238281 C 145.738281 169.222656 147.378906 167.578125 149.394531 167.578125 L 174.449219 167.578125 C 176.464844 167.578125 178.109375 169.222656 178.109375 171.238281 L 178.109375 196.292969 C 178.109375 198.308594 176.464844 199.953125 174.449219 199.953125 Z M 174.449219 199.953125 " fill-opacity="1" fill-rule="nonzero"/><path fill="#000000" d="M 174.449219 251.332031 L 149.394531 251.332031 C 147.378906 251.332031 145.738281 249.6875 145.738281 247.671875 L 145.738281 222.617188 C 145.738281 220.601562 147.378906 218.957031 149.394531 218.957031 L 174.449219 218.957031 C 176.464844 218.957031 178.109375 220.601562 178.109375 222.617188 L 178.109375 247.671875 C 178.109375 249.726562 176.464844 251.332031 174.449219 251.332031 Z M 174.449219 251.332031 " fill-opacity="1" fill-rule="nonzero"/><path fill="#000000" d="M 174.449219 302.746094 L 149.394531 302.746094 C 147.378906 302.746094 145.738281 301.101562 145.738281 299.085938 L 145.738281 274.03125 C 145.738281 272.015625 147.378906 270.375 149.394531 270.375 L 174.449219 270.375 C 176.464844 270.375 178.109375 272.015625 178.109375 274.03125 L 178.109375 299.125 C 178.109375 301.101562 176.464844 302.746094 174.449219 302.746094 Z M 174.449219 302.746094 " fill-opacity="1" fill-rule="nonzero"/><path fill="#000000" d="M 225.867188 199.953125 L 200.8125 199.953125 C 198.796875 199.953125 197.152344 198.308594 197.152344 196.292969 L 197.152344 171.238281 C 197.152344 169.222656 198.796875 167.578125 200.8125 167.578125 L 225.867188 167.578125 C 227.882812 167.578125 229.523438 169.222656 229.523438 171.238281 L 229.523438 196.292969 C 229.488281 198.308594 227.882812 199.953125 225.867188 199.953125 Z M 225.867188 199.953125 " fill-opacity="1" fill-rule="nonzero"/><path fill="#000000" d="M 225.867188 251.332031 L 200.8125 251.332031 C 198.796875 251.332031 197.152344 249.6875 197.152344 247.671875 L 197.152344 222.617188 C 197.152344 220.601562 198.796875 218.957031 200.8125 218.957031 L 225.867188 218.957031 C 227.882812 218.957031 229.523438 220.601562 229.523438 222.617188 L 229.523438 247.671875 C 229.488281 249.726562 227.882812 251.332031 225.867188 251.332031 Z M 225.867188 251.332031 " fill-opacity="1" fill-rule="nonzero"/><path fill="#000000" d="M 225.867188 302.746094 L 200.8125 302.746094 C 198.796875 302.746094 197.152344 301.101562 197.152344 299.085938 L 197.152344 274.03125 C 197.152344 272.015625 198.796875 270.375 200.8125 270.375 L 225.867188 270.375 C 227.882812 270.375 229.523438 272.015625 229.523438 274.03125 L 229.523438 299.125 C 229.488281 301.101562 227.882812 302.746094 225.867188 302.746094 Z M 225.867188 302.746094 " fill-opacity="1" fill-rule="nonzero"/><path fill="#000000" d="M 277.28125 199.953125 L 252.226562 199.953125 C 250.210938 199.953125 248.566406 198.308594 248.566406 196.292969 L 248.566406 171.238281 C 248.566406 169.222656 250.210938 167.578125 252.226562 167.578125 L 277.28125 167.578125 C 279.296875 167.578125 280.941406 169.222656 280.941406 171.238281 L 280.941406 196.292969 C 280.902344 198.308594 279.261719 199.953125 277.28125 199.953125 Z M 277.28125 199.953125 " fill-opacity="1" fill-rule="nonzero"/><path fill="#000000" d="M 277.28125 251.332031 L 252.226562 251.332031 C 250.210938 251.332031 248.566406 249.6875 248.566406 247.671875 L 248.566406 222.617188 C 248.566406 220.601562 250.210938 218.957031 252.226562 218.957031 L 277.28125 218.957031 C 279.296875 218.957031 280.941406 220.601562 280.941406 222.617188 L 280.941406 247.671875 C 280.902344 249.726562 279.261719 251.332031 277.28125 251.332031 Z M 277.28125 251.332031 " fill-opacity="1" fill-rule="nonzero"/></svg>