<svg xmlns="http://www.w3.org/2000/svg" xmlns:xlink="http://www.w3.org/1999/xlink" width="500" zoomAndPan="magnify" viewBox="0 0 375 374.999991" height="500" preserveAspectRatio="xMidYMid meet" version="1.0"><defs><clipPath id="de0e6b14c3"><path d="M 187.5 0 C 83.945312 0 0 83.945312 0 187.5 C 0 291.054688 83.945312 375 187.5 375 C 291.054688 375 375 291.054688 375 187.5 C 375 83.945312 291.054688 0 187.5 0 Z M 187.5 0 " clip-rule="nonzero"/></clipPath><clipPath id="4f7e6a5626"><path d="M 143.679688 143.679688 L 232.160156 143.679688 L 232.160156 232.160156 L 143.679688 232.160156 Z M 143.679688 143.679688 " clip-rule="nonzero"/></clipPath><clipPath id="95bc05214c"><path d="M 187.917969 143.679688 C 163.484375 143.679688 143.679688 163.484375 143.679688 187.917969 C 143.679688 212.351562 163.484375 232.160156 187.917969 232.160156 C 212.351562 232.160156 232.160156 212.351562 232.160156 187.917969 C 232.160156 163.484375 212.351562 143.679688 187.917969 143.679688 Z M 187.917969 143.679688 " clip-rule="nonzero"/></clipPath></defs><g clip-path="url(#de0e6b14c3)"><path stroke-linecap="butt" transform="matrix(0.75, 0, 0, 0.75, 0.0000045, 0)" fill="none" stroke-linejoin="miter" d="M 249.999994 0 C 111.927078 0 -0.000006 111.927084 -0.000006 250 C -0.000006 388.072917 111.927078 500.000001 249.999994 500.000001 C 388.072911 500.000001 499.999995 388.072917 499.999995 250 C 499.999995 111.927084 388.072911 0 249.999994 0 Z M 249.999994 0 " stroke="#000000" stroke-width="30" stroke-opacity="1" stroke-miterlimit="4"/></g><path fill="#ff3131" d="M 187.496094 88.480469 C 133.035156 88.480469 88.480469 133.035156 88.480469 187.496094 C 88.480469 241.957031 133.035156 286.515625 187.496094 286.515625 C 241.957031 286.515625 286.515625 241.957031 286.515625 187.496094 C 286.515625 133.035156 241.957031 88.480469 187.496094 88.480469 Z M 187.496094 229.933594 C 164.15625 229.933594 145.058594 210.835938 145.058594 187.496094 C 145.058594 164.15625 164.15625 145.058594 187.496094 145.058594 C 210.835938 145.058594 229.933594 164.15625 229.933594 187.496094 C 229.933594 210.835938 210.835938 229.933594 187.496094 229.933594 Z M 187.496094 229.933594 " fill-opacity="1" fill-rule="nonzero"/><g clip-path="url(#4f7e6a5626)"><g clip-path="url(#95bc05214c)"><path fill="#ff3131" d="M 143.679688 143.679688 L 232.160156 143.679688 L 232.160156 232.160156 L 143.679688 232.160156 Z M 143.679688 143.679688 " fill-opacity="1" fill-rule="nonzero"/></g></g></svg>